<svg xmlns="http://www.w3.org/2000/svg" version="1.1" xmlns:xlink="http://www.w3.org/1999/xlink" xmlns:svgjs="http://svgjs.com/svgjs" width="1425" height="402" preserveAspectRatio="none" viewBox="0 0 1425 402"><g mask="url(&quot;#SvgjsMask2415&quot;)" fill="none"><rect width="1425" height="402" x="0" y="0" fill="url(#SvgjsLinearGradient2416)"></rect><path d="M0 0L284.81 0L0 116.84z" fill="rgba(255, 255, 255, .1)"></path><path d="M0 116.84L284.81 0L653.1700000000001 0L0 147.82z" fill="rgba(255, 255, 255, .075)"></path><path d="M0 147.82L653.1700000000001 0L936.48 0L0 183.37z" fill="rgba(255, 255, 255, .05)"></path><path d="M0 183.37L936.48 0L977.53 0L0 330.62z" fill="rgba(255, 255, 255, .025)"></path><path d="M1425 402L1046.84 402L1425 225.02z" fill="rgba(0, 0, 0, .1)"></path><path d="M1425 225.02L1046.84 402L843.6999999999999 402L1425 172.48000000000002z" fill="rgba(0, 0, 0, .075)"></path><path d="M1425 172.48000000000002L843.7 402L774.1 402L1425 94.30000000000001z" fill="rgba(0, 0, 0, .05)"></path><path d="M1425 94.30000000000001L774.1 402L548.62 402L1425 77.18z" fill="rgba(0, 0, 0, .025)"></path></g><defs><mask id="SvgjsMask2415"><rect width="1425" height="402" fill="#ffffff"></rect></mask><linearGradient x1="100%" y1="50%" x2="0%" y2="50%" gradientUnits="userSpaceOnUse" id="SvgjsLinearGradient2416"><stop stop-color="rgba(42, 65, 89, 1)" offset="0"></stop><stop stop-color="rgba(130, 137, 147, 1)" offset="1"></stop></linearGradient></defs></svg>